<svg width="119" height="70" viewBox="0 0 119 70" fill="none" xmlns="http://www.w3.org/2000/svg">
<rect width="119" height="70" fill="#F5F5F5"/>
<g clip-path="url(#clip0_0_1)">
<rect width="119" height="70" fill="white"/>
<mask id="mask0_0_1" style="mask-type:luminance" maskUnits="userSpaceOnUse" x="0" y="0" width="119" height="70">
<path d="M119 0H0V70H119V0Z" fill="white"/>
</mask>
<g mask="url(#mask0_0_1)">
<mask id="mask1_0_1" style="mask-type:luminance" maskUnits="userSpaceOnUse" x="0" y="0" width="119" height="70">
<path d="M119 0V70H0V0H119Z" fill="white"/>
</mask>
<g mask="url(#mask1_0_1)">
<path d="M48.204 68.368L108.006 68.392C108.006 68.392 118.076 68.392 118.076 58.18V11.22C118.076 11.22 118.076 1 108.006 1H0" stroke="black" stroke-width="1.6"/>
<path d="M42.366 59.534V45.868H40.928L36.653 55.558L32.266 45.868H30.828V59.534H32.266V49.148L36.014 57.384H37.245L40.934 49.148V59.534H42.372H42.366ZM55.646 59.534L50.708 45.868H49.501L44.545 59.534H46.078L47.156 56.447H53.041L54.118 59.534H55.652H55.646ZM52.615 55.179H47.582L50.116 47.965L52.615 55.179ZM67.9 59.534L63.057 51.149L67.297 45.869H65.537L59.257 53.719V45.869H57.817V59.534H59.257V55.714L62.092 52.26L66.195 59.534H67.9ZM78.474 59.534V58.231H71.553V53.299H77.456V51.995H71.553V47.178H78.473V45.874H70.114V59.54H78.474V59.534ZM90.883 59.534L87.686 53.334C89.426 52.968 90.616 51.665 90.616 49.671C90.616 47.311 88.971 45.868 86.626 45.868H81.464V59.534H82.902V53.467H86.135L89.202 59.534H90.883ZM89.178 49.689C89.178 51.359 88.065 52.182 86.49 52.182H82.896V47.172H86.49C88.059 47.172 89.178 48.019 89.178 49.689Z" fill="black" stroke="black" stroke-width="0.2"/>
<path d="M29.786 29.794V28.491H21.426V42.156H22.865V36.131H28.767V34.828H22.865V29.8H29.785L29.786 29.794ZM33.836 42.15V28.485H32.396V42.15H33.836ZM46.055 42.15V40.847H39.169V28.49H37.731V42.155H46.055V42.15ZM59.163 42.15V28.485H57.723L53.449 38.174L49.062 28.484H47.624V42.15H49.062V31.764L52.81 40H54.041L57.73 31.764V42.15H59.168H59.163Z" fill="black" stroke="black" stroke-width="0.2"/>
<path d="M17.21 17.78C17.21 15.882 17.288 13.792 15.884 12.368C15.074 11.545 13.877 11.101 12.48 11.101H7.862V24.766H12.48C13.877 24.766 15.073 24.322 15.884 23.499C17.282 22.081 17.211 19.679 17.211 17.78H17.21ZM15.772 17.78C15.772 19.45 15.807 21.487 14.884 22.466C14.185 23.192 13.28 23.463 12.238 23.463H9.307V12.41H12.237C13.28 12.41 14.185 12.68 14.884 13.407C15.814 14.387 15.772 16.117 15.772 17.78ZM29.803 20.261V11.107H28.365V20.147C28.365 22.219 27.062 23.583 25.091 23.583C23.12 23.583 21.841 22.219 21.841 20.147V11.107H20.4V20.261C20.4 22.988 22.366 24.886 25.09 24.886C27.813 24.886 29.803 22.988 29.803 20.261ZM42.763 20.988C42.763 19.354 41.857 18.225 40.567 17.744C41.703 17.324 42.55 16.189 42.55 14.753C42.55 12.47 40.922 11.107 38.577 11.107H33.51V24.772H38.749C41.135 24.772 42.757 23.469 42.757 20.994L42.763 20.988ZM41.117 14.771C41.117 16.405 39.963 17.15 38.471 17.15H34.954V12.41H38.471C39.963 12.41 41.117 13.138 41.117 14.771ZM41.324 20.951C41.324 22.49 40.282 23.463 38.619 23.463H34.949V18.453H38.619C40.282 18.453 41.324 19.414 41.324 20.946V20.951ZM55.534 24.766L50.596 11.101H49.382L44.427 24.766H45.96L47.038 21.679H52.922L54 24.766H55.534ZM52.502 20.411H47.47L50.004 13.197L52.502 20.411ZM59.145 24.766V11.101H57.706V24.766H59.145Z" fill="black" stroke="black" stroke-width="0.2"/>
</g>
</g>
</g>
<defs>
<clipPath id="clip0_0_1">
<rect width="119" height="70" fill="white"/>
</clipPath>
</defs>
</svg>
