<svg width="1115" height="69" viewBox="0 0 1115 69" fill="none" xmlns="http://www.w3.org/2000/svg">
<g clip-path="url(#clip0_1_2)">
<path d="M49.44 0C58.4 0 65.952 2.912 72.096 8.736C78.304 14.496 81.408 22.784 81.408 33.6C81.408 44.416 78.304 52.736 72.096 58.56C65.952 64.32 58.4 67.2 49.44 67.2H0V0H49.44ZM42.24 49.344C44.928 49.344 47.168 49.184 48.96 48.864C50.816 48.544 52.672 47.904 54.528 46.944C56.448 45.92 57.888 44.32 58.848 42.144C59.808 39.904 60.288 37.056 60.288 33.6C60.288 30.144 59.808 27.328 58.848 25.152C57.888 22.912 56.448 21.312 54.528 20.352C52.672 19.328 50.816 18.656 48.96 18.336C47.168 18.016 44.928 17.856 42.24 17.856H21.12V49.344H42.24ZM170.73 33.504C170.73 45.28 167.338 54.016 160.554 59.712C153.77 65.344 143.082 68.16 128.49 68.16C113.834 68.16 103.114 65.344 96.33 59.712C89.61 54.08 86.25 45.344 86.25 33.504V0H107.37V33.504C107.37 35.872 107.626 37.952 108.138 39.744C108.65 41.472 109.578 43.2 110.922 44.928C112.33 46.656 114.506 48 117.45 48.96C120.394 49.856 124.074 50.304 128.49 50.304C132.074 50.304 135.178 49.984 137.802 49.344C140.426 48.64 142.474 47.776 143.946 46.752C145.418 45.728 146.602 44.448 147.498 42.912C148.394 41.376 148.97 39.904 149.226 38.496C149.482 37.024 149.61 35.36 149.61 33.504V0H170.73V33.504ZM249.786 30.144C256.314 34.432 259.578 40.192 259.578 47.424C259.578 53.376 257.754 58.176 254.106 61.824C250.458 65.408 244.986 67.2 237.69 67.2H176.25V0H235.098C242.266 0 247.386 1.536 250.458 4.608C253.53 7.68 255.066 11.936 255.066 17.376C255.066 21.856 253.306 26.112 249.786 30.144ZM197.37 14.4V24.96H226.746C227.706 24.96 228.442 24.96 228.954 24.96C229.466 24.896 230.074 24.8 230.778 24.672C231.546 24.48 232.122 24.224 232.506 23.904C232.89 23.52 233.21 22.976 233.466 22.272C233.786 21.568 233.946 20.704 233.946 19.68C233.946 18.656 233.786 17.792 233.466 17.088C233.21 16.384 232.89 15.872 232.506 15.552C232.122 15.168 231.546 14.912 230.778 14.784C230.074 14.592 229.466 14.496 228.954 14.496C228.442 14.432 227.706 14.4 226.746 14.4H197.37ZM231.258 51.456C232.474 51.456 233.37 51.424 233.946 51.36C234.586 51.296 235.322 51.104 236.154 50.784C236.986 50.464 237.562 49.92 237.882 49.152C238.266 48.384 238.458 47.36 238.458 46.08C238.458 45.056 238.298 44.192 237.978 43.488C237.722 42.784 237.402 42.272 237.018 41.952C236.634 41.568 236.058 41.312 235.29 41.184C234.586 40.992 233.978 40.896 233.466 40.896C232.954 40.832 232.218 40.8 231.258 40.8H197.37V51.456H231.258ZM326.544 67.2L320.784 54.048H286.128L280.368 67.2H257.04L288.336 0H318.576L349.776 67.2H326.544ZM292.848 38.88H314.064L303.504 14.784L292.848 38.88ZM373.901 0V67.2H352.781V0H373.901ZM450.728 17.856H400.808V29.952H444.968V47.808H400.808V67.2H379.688V0H450.728V17.856ZM476.089 0V67.2H454.969V0H476.089ZM502.995 49.344H550.995V67.2H481.875V0H502.995V49.344ZM658.756 0V67.2H637.636V28.032L614.5 67.2H600.1L576.964 27.936V67.2H555.844V0H582.916L607.396 42.912L631.78 0H658.756ZM767.412 0V67.2H746.292V28.032L723.156 67.2H708.756L685.62 27.936V67.2H664.5V0H691.572L716.052 42.912L740.436 0H767.412ZM839.919 67.2L834.159 54.048H799.503L793.743 67.2H770.415L801.711 0H831.951L863.151 67.2H839.919ZM806.223 38.88H827.439L816.879 14.784L806.223 38.88ZM957.548 0L917.804 30.72L957.548 67.2H928.364L902.636 42.432L887.276 54.336V67.2H866.156V0H887.276V30.528L926.732 0H957.548ZM1031.32 16.416H981.401V26.4H1031.32V40.8H981.401V50.784H1031.32V67.2H960.281V0H1031.32V16.416ZM1114.37 25.152C1114.37 30.272 1113.19 34.816 1110.82 38.784C1108.52 42.688 1105.32 45.632 1101.22 47.616L1113.32 67.2H1088.36L1078.37 50.4H1056.96V67.2H1035.84V0H1088.64C1096.26 0 1102.44 2.336 1107.17 7.008C1111.97 11.616 1114.37 17.664 1114.37 25.152ZM1056.96 17.856V32.544H1083.84C1085.19 32.544 1086.24 32.512 1087.01 32.448C1087.84 32.32 1088.8 32.064 1089.89 31.68C1091.04 31.232 1091.88 30.464 1092.39 29.376C1092.96 28.288 1093.25 26.88 1093.25 25.152C1093.25 23.424 1092.96 22.048 1092.39 21.024C1091.88 19.936 1091.04 19.2 1089.89 18.816C1088.8 18.368 1087.84 18.112 1087.01 18.048C1086.24 17.92 1085.19 17.856 1083.84 17.856H1056.96Z" fill="#050505"/>
</g>
<defs>
<clipPath id="clip0_1_2">
<rect width="1115" height="69" fill="white"/>
</clipPath>
</defs>
</svg>
